# xmcd CD database file
#
# Track frame offsets:
#	150
#	19777
#	39125
#	58755
#	78385
#	108995
#
# Disc length: 4440 seconds
#
# Revision: 0
# Processed by: cddbd v1.5.1PL0 Copyright (c) Steve Scherf et al.
# Submitted via: CDex 1.51
#
DISCID=3e115606
DTITLE=move - DOGFIGHT
DYEAR=2004
DGENRE=J-Pop
TTITLE0=DOGFIGHT
TTITLE1=Fall iNTo DozE
TTITLE2=DOGFIGHT (English Version)
TTITLE3=DOGFIGHT (instrumental)
TTITLE4=Fall iNTo DozE (instrumental)
TTITLE5=[CCCD Data Track]
EXTD=YEAR: 2004
EXTT0=
EXTT1=
EXTT2=
EXTT3=
EXTT4=
EXTT5=
PLAYORDER=
